<?xml version="1.0" encoding="UTF-8" standalone="no"?>
<svg
   version="1.1"
   width="739.8548"
   height="1341.4752"
   viewBox="0 0 739.8548 1341.4752"
   xml:space="preserve"
   id="svg12"
   xmlns="http://www.w3.org/2000/svg"
   xmlns:svg="http://www.w3.org/2000/svg">
<desc
   id="desc1">Designed by Noemi Rozpara</desc>
<g
   transform="matrix(1.0439893,0,0,1,515.51208,603.19801)"
   id="RPGh5WXH3rmuQl45V9JxG">
<path
   style="opacity:1;fill:#33100b;fill-rule:nonzero;stroke:none;stroke-width:1;stroke-linecap:butt;stroke-linejoin:miter;stroke-miterlimit:4;stroke-dasharray:none;stroke-dashoffset:0"
   d="m -24.17618,-4.878 c -5.2,1 -18.1,3.3 -28.5,5.2 l -21.93224,5.03265 c 14.7,1 33.82833,0.27959 42.92833,0.37959 9.1,0 35.9,-0.8 59.5,-1.9 30.2,-1.4 45.55031,-2.19592 46.45031,-3.09592 0.7,-0.6 1.0345,-2.11041 -6.60308,-3.28643 -7.63758,-1.17602 -6.74723,-0.61765 -23.94723,-1.41765 -15.9,-0.7 -34.5,-1.5 -41.4,-1.7 -9.3,-0.3 -19.4961,-0.51224 -26.4961,0.78776 z"
   stroke-linecap="round"
   id="path1" />
</g>
<g
   transform="translate(369.22587,338.23124)"
   id="8Yu6JEpkU6W158tcvj64g">
<linearGradient
   id="SVGID_2963"
   gradientUnits="userSpaceOnUse"
   gradientTransform="translate(-310.66602,-165.10102)"
   x1="0"
   y1="165.10101"
   x2="575.18115"
   y2="313.94717">
<stop
   offset="0%"
   style="stop-color:#CC4431;stop-opacity: 1"
   id="stop1" />
<stop
   offset="49.33817266524597%"
   style="stop-color:#B82C19;stop-opacity: 1"
   id="stop2" />
<stop
   offset="100%"
   style="stop-color:#33100B;stop-opacity: 1"
   id="stop3" />
</linearGradient>
<path
   style="opacity:1;fill:url(#SVGID_2963);fill-rule:nonzero;stroke:none;stroke-width:1;stroke-linecap:butt;stroke-linejoin:miter;stroke-miterlimit:4;stroke-dasharray:none;stroke-dashoffset:0"
   d="m -242.02961,-157.53801 -38.39482,9.63902 c -24.4,14 -19.90492,9.03622 -22.90492,12.93622 -3,4 -7.33667,12.27686 -7.33667,15.57686 0,3.4 2.09495,9.28693 4.99495,13.28693 3.4,4.6 5.3,5.8 19.3,12.8 14.1,7.1 17.9,8.4 42.5,15.4 21.7,6.1 34.6,9 66,14.8 l 41.94118,8.08235 c 172.3,-23.3 173.05882,-15.88235 296.05882,-27.28235 81.7,-7.5 126.8,-20.7 136,-22.3 7.7,-1.4 13.85686,-0.7902 14.15686,-1.0902 0.3,-0.2 0.54314,-3.0098 0.24314,-3.7098 -0.4,-0.8 -6.1,-1.9 -15.5,-3.1 -8.2,-0.9 -84.4,-7.3 -169.4,-14.2 -128,-10.4 -161.3,-13.4 -194.5,-17.5 -25.6,-3.3 -56,-8 -84.5,-13.1 -24.5,-4.3 -45.4,-7.9 -46.5,-7.8 -1.1,0 -42.15854,7.56098 -42.15854,7.56098 z M -80.37107,58.30102 c -10.7,1.3 -43.30385,-0.53077 -69.40385,4.16923 -36.6,6.6 -50.37692,10.38077 -66.57692,14.98077 -13.7,3.8 -23.41923,13.55 -28.71923,16.25 -4.6,2.2 -9.4,5.3 -10.8,6.8 -1.6,1.9 -2.4,4 -2.5,6.5 0,3.1 0.6,4.3 3.4,6.5 2.1,1.7 11,5.5 22.3,9.5 18,6.4 20.8,7.1 63.3,15.2 29.8,5.7 65.3,11.5 107.5,17.7 l 63,9.2 c 81.04031,-11.5979 125.89519,-16.60629 153.15863,-20.82772 29.1539,-4.51415 40.25074,-3.92343 53.84137,-6.97228 25.6,-5.8 28.3,-3.2 38.3,-7.8 10.3,-4.8 11.4,-13.5 12.4,-16.7 1,-3.3 0.9,-3.6 -2.4,-6.5 -3,-2.5 -7.4,-4 -26.9,-9.2 -12.9,-3.4 -27.9,-6.9 -33.4,-7.8 -5.5,-0.9 -12.2,-2 -15,-2.5 -2.7,-0.5 -9.3,-1.7 -14.5,-2.6 -5.2,-0.9 -11.3,-1.8 -13.5,-2.1 -2.2,-0.2 -12.8,-1.5 -23.5,-2.9 -10.7,-1.3 -22.2,-2.8 -25.5,-3.4 -3.3,-0.5 -13.9,-1.9 -23.5,-3 -9.6,-1.1 -23.4,-2.7 -30.5,-3.4 -7.1,-0.8 -33,-4.2 -57.5,-7.5 -24.5,-3.4 -49.56122,-6.50816 -52.06122,-6.40816 -2.5,0.1 -10.23878,1.60816 -20.93878,2.80816 z"
   stroke-linecap="round"
   id="path3" />
</g>
<g
   transform="translate(383.0303,307.21405)"
   id="5mgEJjEZyaO3NobJskW9k">
<linearGradient
   id="SVGID_2951"
   gradientUnits="userSpaceOnUse"
   gradientTransform="translate(-348.8245,-307.21405)"
   x1="34.615383"
   y1="353.82288"
   x2="632.47888"
   y2="344.10394">
<stop
   offset="0%"
   style="stop-color:#33100B;stop-opacity: 1"
   id="stop4" />
<stop
   offset="49.9675595218222%"
   style="stop-color:#B82C19;stop-opacity: 1"
   id="stop5" />
<stop
   offset="100%"
   style="stop-color:#CC4431;stop-opacity: 1"
   id="stop6" />
</linearGradient>
<path
   style="opacity:1;fill:url(#SVGID_2951);fill-rule:nonzero;stroke:none;stroke-width:1;stroke-linecap:butt;stroke-linejoin:miter;stroke-miterlimit:4;stroke-dasharray:none;stroke-dashoffset:0"
   d="m 185.8245,-305.48179 c -72.9,2.1 -81.8,2.5 -149.5,7.7 l -72,5.5 c 0,0 -84.75,11.4 -148,24.1 -63.25,12.7 -65.8,13 -105,26.7 -39.2,13.7 -44.2,20.6 -51.8,28.1 -5.8,5.8 -7.9,8.6 -8.3,11.2 -0.5,2.5 2.8,19 11.1,57.5 6.5,29.7 12.7,57.4 13.3,58.1 0.9,1 1.6,-2.7 4.7,-6.8 3.3,-4.3 6.4,-6.6 17.5,-13 0,0 13.79986,-7.30531 41.79986,-15.60531 28,-8.3 56.70014,-14.49469 70.20014,-17.59469 17.8,-4 38.1,-7.6 74,-13.1 43.5,-6.5 60,-8.5 135.5,-16 47.3,-4.7 106.7,-10.3 132,-12.4 35.8,-3.1 59.9,-4.5 108.4,-6.3 34.2,-1.3 62.6,-2.5 63,-2.8 0.4,-0.3 6.5,-24.8 13.5,-54.5 6.9,-29.7 12.6,-54.6 12.6,-55.3 0,-0.6 -2.4,-2.1 -5.3,-3.1 -2.8,-1.1 -9.2,-2.3 -14.2,-2.7 -5,-0.3 -21.8,-0.9 -37.5,-1.3 -19.5,-0.4 -53.1,0.1 -106,1.6 z m 96.5,231.9 c -8.3,1.5 -58.4,6.5 -138,13.9 -124.1,11.5 -125.6,11.6 -210,23.1 -46.8,6.3 -85.2,11.9 -85.5,12.3 -0.3,0.5 -12,2.7 -26,5.1 -18,2.9 -33.9,6.4 -54,11.6 -18.3,4.8 -33,9.3 -41,12.5 -7.5,3.1 -14.7,6.8 -17.9,9.2 -2.9,2.3 -5.7,5 -6.2,6 -0.5,0.9 -0.9,4.7 -0.9,8.5 0,5.2 2.6,17.5 12.2,56.5 l 12.91224,54.49388 c 1.11049,-1.21379 2.30397,-2.5422 3.41527,-3.81508 v 0 c 6.3464,-7.26912 14.4183,-12.82625 23.47366,-16.16052 5.03545,-1.8541 8.30334,-2.92245 15.49882,-4.91828 16.1,-4.5 32,-7.9 68,-14.4 11.93986,-2.18458 23.03945,-3.64889 32.57864,-5.22529 15.7871,-2.6089 28.01012,-4.81502 37.92136,-5.87471 12.9,-1.3 38.4,-4.9 56.5,-8 21.6,-3.5 65.9,-9.4 128,-16.9 92.7,-11.2 96,-11.7 134.4,-19.2 l 39.3,-7.8 c 6,-7.7 7.2,-12.2 18,-59.5 6.5,-28.3 11.8,-52.1 11.8,-52.8 0,-0.6 0.27223,-2.62957 -0.22777,-2.52957 -0.4,0 -7.17223,2.62957 -14.27223,3.92957 z m -50.5,226.4 c -9.1,4.3 -14.4,5.8 -39.5,11.5 -26.5,6 -36.7,7.7 -117,19.1 -48.4,6.8 -120.2,17.2 -159.5,23 0,0 -32.65976,4.12927 -72.10976,12.42927 -39.45,8.3 -81.29024,18.17073 -85.69024,20.77073 l -5.2,3.2 c 0,8.2 2.3,20.1 5.1,32 2.9,11.8 5.81224,23.02857 5.91224,23.12857 0,0.1 7.98776,0.99184 18.48776,2.39184 17.3,2.3 24.50408,3.00816 78.20408,4.00816 48.4,0.9 60.68139,3.8407 117.68139,2.5407 l 80.11453,-5.96927 c 54.8,-9.4 75.2,-13.7 97.5,-19.3 0,0 4.04907,-1.00915 6.04339,-1.5062 v 0 c 17.57284,-4.37969 34.54943,-10.87516 50.55769,-19.34405 2.27665,-1.20442 6.89893,-3.64975 6.89893,-3.64975 18.9,-78.1 25.31633,-105.76122 25.31633,-108.16122 0,-2.3 1.12857,-7.26122 0.62857,-7.16122 -0.4,0 -5.20562,8.26684 -13.4449,11.02245 -8.23927,2.75561 0,0 0,0 z"
   stroke-linecap="round"
   id="path6" />
</g>
<g
   transform="translate(369.9274,972.52625)"
   id="AN-EjJgoJQ95DOvktUDzt">
<linearGradient
   id="SVGID_2957"
   gradientUnits="userSpaceOnUse"
   gradientTransform="translate(-369.9274,-368.94897)"
   x1="48.933334"
   y1="340.55469"
   x2="697.29456"
   y2="349.17105">
<stop
   offset="0%"
   style="stop-color:#33100B;stop-opacity: 1"
   id="stop7" />
<stop
   offset="50.17827122374785%"
   style="stop-color:#B82C19;stop-opacity: 1"
   id="stop8" />
<stop
   offset="100%"
   style="stop-color:#CC4431;stop-opacity: 1"
   id="stop9" />
</linearGradient>
<path
   style="opacity:1;fill:url(#SVGID_2957);fill-rule:nonzero;stroke:none;stroke-width:1;stroke-linecap:butt;stroke-linejoin:miter;stroke-miterlimit:4;stroke-dasharray:none;stroke-dashoffset:0"
   d="m -237.3726,-305.19399 c -7.6,34.7 -13.7,63.5 -13.7,64 0,0.4 5.1,2.3 11.3,4.2 10.2,3.1 14.1,3.7 44.2,6.4 31.4,2.9 38,3.2 137,5.1 94.9,1.8 107.1,1.8 139.5,0.5 19.5,-0.8 55.5,-2.4 80,-3.5 25.8,-1.2 51,-2.9 60,-4 9,-1.2 18.6,-3.1 22.8,-4.5 3.9,-1.4 7.49412,-2.51176 7.49412,-3.11176 0,-0.7 -6.19412,-29.98824 -13.49412,-64.38824 -7.2,-34.4 -14.11633,-64.12857 -14.31633,-64.42857 -0.3,-0.3 -23.38367,2.02857 -52.28367,3.32857 -40.5,1.8 -57.5,2.2 -73.7,1.6 -11.6,-0.4 -21.4,-0.7 -22,-0.7 -0.6,0 -33.2,0.8 -72.5,1.7 -60.1,1.4 -80.8,1.5 -130,0.6 -53,-1 -60.2,-1.3 -77,-3.6 -10.2,-1.4 -18.8,-2.5 -19,-2.5 -0.3,0 -6.8,28.5 -14.3,63.3 z m -61.1,265.5 c -7.5,33.1 -14.41633,66.59388 -14.41633,68.69388 0.1,2.7 1.71633,0.0061 4.11633,2.80612 2.5,3 5.9,4.9 16.2,9.3 12.4,5.2 14.7,5.8 49,12.4 l 36,6.9 c 116.9,9.8 121,10 175.5,11 50.8,1 61.1,0.9 102.5,-0.9 25.3,-1.1 58.1,-2.7 73,-3.5 17.6,-1 39.4,-3.2 62.5,-6.1 31.8,-4.1 38.2,-5.2 61,-10.9 21.6,-5.4 26.7,-7 33.4,-10.7 4.8,-2.6 12.62041,-7.91837 12.62041,-9.91837 0,-2.1 -7.42041,-36.38163 -15.22041,-71.08163 -7.8,-34.8 -14.3,-63.5 -14.5,-63.8 -0.2,-0.3 -1.8,0.3 -3.6,1.3 -1.7,0.9 -7,3.3 -11.7,5.2 -6.8,2.8 -13.3,4.4 -32,7.5 -22.7,3.8 -26.2,4.1 -99.7,8.5 -73.9,4.4 -78,4.5 -131,4.5 -43,0 -66.6,-0.5 -109.8,-2.5 -45.5,-2.1 -61.3,-3.2 -91.5,-6.5 -35.3,-3.9 -37.3,-4.2 -59.5,-10 -12.6,-3.3 -17.68571,-4.86735 -18.28571,-5.36735 -0.5,-0.6 -9.13061,-4.06122 -9.13061,-4.06122 0,0 -8.08367,34.02857 -15.48367,67.22857 z m -44.2,202.38367 c -0.5,0.8 -7,29.81633 -14.5,63.31633 -12.5,56.5 -13.4,61.3 -12.5,65.7 0.9,4 2.4,6.1 9.1,12.9 7.2,7.2 9.4,8.8 22,15.1 10.4,5.3 19.6,8.9 35.5,14 19.7,6.3 20.0122,7.6 64.0122,15.9 0,0 13.36585,3.00549 58.36585,7.78049 45,4.775 56.95095,8.63471 132.23144,10.58959 75.28049,1.95488 117.99051,0.92993 168.89051,-2.77007 50.2,-3.6 51.8,-3.8 98,-11.1 l 60.41463,-10.54878 c 62.4,-19 55.02439,-17.86098 66.52439,-24.16098 7.4,-4.1 12.36098,-8.49024 15.56098,-11.49024 3.7,-3.5 6.1,-6.8 7.3,-10.1 1,-2.7 1.7,-7.6 1.7,-11.3 0,-4.6 -3.7,-23 -13,-64 -7.5,-33.6 -13.5,-57.8 -14.2,-58.2 -0.9,-0.5 -1.7,0.2 -2.5,2 -0.6,1.5 -3.1,4.6 -5.5,6.9 -2.4,2.3 -8.08235,3.64118 -11.68235,5.64118 -4,2.2 -15.81765,8.75882 -31.61765,13.65882 -25.7,7.9 -26.4,8.1 -66.5,14.5 -32.5,5.1 -47.5,7 -76,9.4 -23.4,2 -49,3.4 -75,4.2 -29.3,0.8 -56.7,0.8 -106.2,0 l -66.8,-1.1 -119.5,-12 c -76.5,-17.2 -79.9,-18.2 -93.5,-24 -11.5,-4.9 -15.9,-7.4 -21.1,-11.8 -3.7,-3.2 -7.1,-6.6 -7.6,-7.7 -0.8,-1.7 -1.9,-1.31633 -1.9,-1.31633 z"
   stroke-linecap="round"
   id="path9" />
</g>
<g
   transform="translate(370.15504,962.32493)"
   id="Q9SBwt8tFUvRvF_oic8m5">
<linearGradient
   id="SVGID_1757"
   gradientUnits="userSpaceOnUse"
   gradientTransform="translate(-343.23697,-231.31308)"
   x1="0"
   y1="231.31308"
   x2="671.43683"
   y2="134.40714">
<stop
   offset="0%"
   style="stop-color:#E8E8E8;stop-opacity: 1"
   id="stop10" />
<stop
   offset="50%"
   style="stop-color:#F3F3F3;stop-opacity: 1"
   id="stop11" />
<stop
   offset="100%"
   style="stop-color:#FFFFFF;stop-opacity: 1"
   id="stop12" />
</linearGradient>
<path
   style="opacity:1;fill:url(#SVGID_1757);fill-rule:nonzero;stroke:none;stroke-width:1;stroke-linecap:butt;stroke-linejoin:miter;stroke-miterlimit:4;stroke-dasharray:none;stroke-dashoffset:0"
   d="m -266.60024,-167.49267 c -8.1,34.5 -16.22857,67.96531 -16.22857,70.46531 0,2.5 10.6,4.69184 11.3,5.29184 0.7,0.7 3.02857,1.14286 15.72857,4.44286 22.3,5.8 24.1,6.1 59.5,10 30.2,3.3 46,4.4 91.5,6.5 43.2,2 66.8,2.5 109.8,2.5 53,0 57.1,-0.1 130.9,-4.5 73.7,-4.4 77.1,-4.7 99.8,-8.5 20.4,-3.5 24.9,-4.6 34,-8.3 l 13.32686,-5.46007 c 0,0 -5.02686,-23.73993 -17.22686,-74.23993 -7.9,-32.7 -14.5,-60.28824 -14.7,-60.58824 -0.2,-0.3 -3.6,1.28824 -7.6,2.78824 -5,1.9 -12.3,3.4 -22.8,4.8 -9,1.1 -34.2,2.8 -60,4 -24.5,1.1 -60.5,2.7 -80,3.5 -32.4,1.3 -44.6,1.3 -139.5,-0.5 -99,-1.9 -105.6,-2.2 -137,-5.1 -30.1,-2.7 -34,-3.3 -44,-6.4 -6.1,-1.9 -11.2,-4.52041 -11.5,-4.52041 -0.3,0 -7.2,29.22041 -15.3,63.82041 z m -61.6,268.2 c -6.6,29.4 -15.03673,72.92857 -15.03673,72.92857 0,0 4.73673,3.97143 9.73673,8.27143 5.3,4.4 9.8,6.9 21.2,11.8 13.6,5.8 34.08088,12.70294 46.64706,15.68824 12.56618,2.98529 20.33824,5.14559 60.08824,10.37059 39.75,5.225 106.26471,9.94118 106.26471,9.94118 116.3,1.9 143.7,1.9 173,1.1 26,-0.8 51.6,-2.2 75,-4.2 28.5,-2.4 43.5,-4.3 76,-9.4 39.8,-6.4 40.9,-6.6 66,-14.3 16.4,-5.1 32.8,-11.8 32.8,-11.8 l 4.55772,-2.61749 v 0 c 5.31988,-3.0552 10.12045,-6.93639 14.22212,-11.49836 l 0.95738,-1.06482 -15.93721,-75.21933 c 0,0 -14,-60.9 -14.4,-61.3 -0.4,-0.5 -7.8,7.4 -12.8,10.1 -6.7,3.7 -11.8,5.3 -33.4,10.7 -22.8,5.7 -29.2,6.8 -61,10.9 -23.1,2.9 -44.9,5.1 -62.5,6.1 -14.9,0.8 -47.7,2.4 -73,3.5 -41.4,1.8 -51.7,1.9 -102.5,0.9 -54.5,-1 -58.6,-1.2 -116,-6 0,0 -41.61029,-3.63088 -60.38235,-5.88235 -18.77206,-2.25147 -71.71765,-13.21765 -84.11765,-18.41765 -10.3,-4.4 -20.22449,-12.39184 -20.22449,-12.39184 0,0 -7.67551,28.09184 -15.17551,61.79184 z"
   stroke-linecap="round"
   id="path12" />
</g>
</svg>
